PathFileType	4	(X/Y/Z)	F:\MotionCapture\20160217\3\Generated_files\EMG_Fprce_test06-Dynamic.trc
DataRate	CameraRate	NumFrames	NumMarkers	Units	OrigDataRate	OrigDataStartFrame	OrigNumFrames
120.00	120.00	       4	39	mm	120.00	575	       657
Frame#	Time	Top.Head			Front.Head			Rear.Head			R.Shoulder			R.Offset			R.Elbow			R.Wrist			L.Shoulder			L.Elbow			L.Wrist			R.ASIS			L.ASIS			V.Sacral			R.Thigh			R.Knee			R.Shank			R.Ankle			R.Heel			R.Toe			L.Thigh			L.Knee			L.Shank			L.Ankle			L.Heel			L.Toe			R1			R2			R3			R4			R5			R6			R7			L1			L2			L3			L4			L5			L6			L7			V_Mid_ASIS			V_Pelvis_Origin			V_R.Hip_JC			V_L.Hip_JC			V_R.Knee_JC			V_L.Knee_JC			V_R.Ankle_JC			V_L.Ankle_JC			V_Mid_Hip			V_Mid_Shoulder			V_R.Hand			V_L.Hand			V_R.Toe_Offset_Static			V_L.Toe_Offset_Static			V_R.Toe_Offset			V_L.Toe_Offset			
		X1	Y1	Z1	X2	Y2	Z2	X3	Y3	Z3	X4	Y4	Z4	X5	Y5	Z5	X6	Y6	Z6	X7	Y7	Z7	X8	Y8	Z8	X9	Y9	Z9	X10	Y10	Z10	X11	Y11	Z11	X12	Y12	Z12	X13	Y13	Z13	X14	Y14	Z14	X15	Y15	Z15	X16	Y16	Z16	X17	Y17	Z17	X18	Y18	Z18	X19	Y19	Z19	X20	Y20	Z20	X21	Y21	Z21	X22	Y22	Z22	X23	Y23	Z23	X24	Y24	Z24	X25	Y25	Z25	X26	Y26	Z26	X27	Y27	Z27	X28	Y28	Z28	X29	Y29	Z29	X30	Y30	Z30	X31	Y31	Z31	X32	Y32	Z32	X33	Y33	Z33	X34	Y34	Z34	X35	Y35	Z35	X36	Y36	Z36	X37	Y37	Z37	X38	Y38	Z38	X39	Y39	Z39	

575	4.783																																																																																																																																																																						-3385.45142	220.46814	1681.00220	-2891.41968	311.99890	171.70221	-2931.72339	339.51450	164.16711	-2959.52734	365.53635	48.55428	-2998.85449	339.20490	42.39513	-2885.23096	265.64240	194.11823	-3033.49146	318.12534	32.43984	-3720.70825	160.39435	23.23657	-3385.15405	549.62457	1076.51782	-3100.31470	303.37711	239.02585	-2975.06201	263.00580	111.94585	-3009.35791	295.29877	40.57357	-3250.24536	384.90530	422.64499	-3278.39771	221.67242	1608.32397	-3333.87524	408.47290	1381.33752	-3772.81714	134.44382	31.90493	-3215.19116	173.86783	889.24255	-3408.24219	371.00827	889.72705	-3664.51758	705.41498	422.92139	-3525.29980	157.50417	38.82917	-3563.14722	190.45163	39.27987	-2922.69067	351.92816	102.06893	-3610.47534	630.63184	331.27820	-3636.11230	632.02716	391.98291	-3640.31934	545.60913	1032.69531	-2921.88623	246.08250	157.11134	
576	4.792																																																																																																																																																																						-3396.77222	219.31502	1683.05774	-2905.45117	312.54037	182.94441	-2944.94263	339.71011	173.33963	-2965.54028	363.22751	53.52955	-3001.81421	332.20660	40.90646	-3289.98071	219.65678	1610.51843	-2901.01001	264.97220	206.01300	-3036.86938	318.17734	32.24780	-3772.94922	132.94911	29.49825	-3720.66504	160.15477	23.06081	-3392.90894	546.23077	1076.99731	-3227.08203	172.87059	890.93634	-3117.11279	304.68933	241.86070	-2937.18994	397.58768	-31.31590	-2986.92920	262.29428	119.49960	-3014.42847	294.83829	42.79200	-3269.45068	386.28256	422.83530	-3346.04541	407.22632	1383.30945	-3421.17798	367.78549	891.85968	-3664.64819	703.47736	423.77060	-3525.32935	157.47498	38.82573	-3563.22314	190.40971	39.29012	-2932.60425	350.61230	111.19077	-3610.75879	629.37469	330.58078	-3636.06445	628.80194	391.44119	-3646.96313	544.19214	1025.51355	-2936.57031	245.48448	167.23325	
577	4.800																																																																																																																																																																						-2921.19263	311.74725	194.00874	-2960.14233	339.75574	182.39148	-2972.24902	362.99274	60.81459	-3006.90625	332.38638	44.45596	-3773.56421	133.22015	30.09350	-2918.77368	263.30862	217.66048	-3721.26514	160.05153	22.76542	-3133.61377	305.78894	244.77179	-3400.84009	542.30713	1076.58264	-2999.79248	262.34015	126.00883	-3020.35547	295.53409	45.75395	-3289.19067	387.81442	423.00964	-3041.77905	318.81155	30.76191	-3357.57495	406.32877	1385.49597	-3237.98999	146.49744	1224.10889	-3301.01611	219.43629	1612.79736	-3664.84546	701.07965	424.53949	-3525.38037	157.24847	38.77874	-3238.65112	171.30859	893.09595	-3563.28003	190.37953	39.45050	-2943.41943	350.09592	121.34354	-3678.73975	706.86633	400.19241	-3610.82202	628.19177	329.98318	-3653.62524	542.18475	1017.49567	-2952.55200	244.37256	176.93932	-3006.82520	262.77133	101.63847	
578	4.808																																																																																																																																																																						-3249.85376	167.72102	896.03290	-2939.36572	307.81622	204.67458	-2976.90771	337.39224	190.53072	-3012.84717	332.56448	48.29301	-3013.43530	261.81653	132.02730	-3773.81396	133.10374	29.91974	-2939.64795	261.52649	229.08904	-2978.44824	361.17361	69.82011	-3028.12378	297.29413	48.34621	-3720.53076	160.09094	22.84340	-3418.92969	216.75572	1688.10291	-3445.94751	364.04691	896.35986	-3151.40063	306.18024	248.16573	-3632.11279	679.41437	415.30170	-3408.36694	539.50934	1076.47961	-3310.10229	388.66510	423.53589	-3046.64185	319.62036	29.88252	-3249.73022	145.92735	1225.99146	-3311.94019	218.72746	1615.46973	-3525.32202	157.73331	39.07053	-3563.30249	190.36784	39.24974	-2955.96606	347.92755	131.75751	-3678.71216	705.45129	401.14261	-3610.87573	626.74707	329.18503	-3659.58545	541.33112	1009.08325	-2970.45703	242.48174	186.54659	
